<?xml version="1.0" encoding="UTF-8" standalone="no"?>
<!-- Created with Inkscape (http://www.inkscape.org/) -->

<svg
   width="210mm"
   height="297mm"
   viewBox="0 0 210 297"
   version="1.1"
   id="svg1"
   xml:space="preserve"
   inkscape:version="1.4.2 (f4327f4, 2025-05-13)"
   sodipodi:docname="player1.svg"
   xmlns:inkscape="http://www.inkscape.org/namespaces/inkscape"
   xmlns:sodipodi="http://sodipodi.sourceforge.net/DTD/sodipodi-0.dtd"
   xmlns="http://www.w3.org/2000/svg"
   xmlns:svg="http://www.w3.org/2000/svg"><sodipodi:namedview
     id="namedview1"
     pagecolor="#ffffff"
     bordercolor="#000000"
     borderopacity="0.25"
     inkscape:showpageshadow="2"
     inkscape:pageopacity="0.0"
     inkscape:pagecheckerboard="0"
     inkscape:deskcolor="#d1d1d1"
     inkscape:document-units="mm"
     inkscape:zoom="0.75811588"
     inkscape:cx="569.83373"
     inkscape:cy="561.25984"
     inkscape:window-width="1920"
     inkscape:window-height="1111"
     inkscape:window-x="-9"
     inkscape:window-y="-9"
     inkscape:window-maximized="1"
     inkscape:current-layer="layer1-7" /><defs
     id="defs1" /><g
     inkscape:label="Layer 1"
     inkscape:groupmode="layer"
     id="layer1"><g
       inkscape:label="Layer 1"
       id="layer1-7"
       transform="translate(1.1149895,0.92660115)"><path
         id="rect1"
         style="fill:#000000;stroke-width:0.264583;fill-opacity:0"
         d="M -1.3957804,-0.34881592 V 298.39626 H 211.84392 V -0.34881592 Z M 110.55553,79.542432 c 1.08362,0.01125 1.89699,1.223923 1.08158,3.10627 -1.28201,2.959513 -2.52975,5.933426 -3.79098,8.901782 0.20912,-0.06555 0.41848,-0.130535 0.62787,-0.195337 0.11727,-0.03308 0.23459,-0.06627 0.35192,-0.09922 1.15811,-1.364193 2.39556,-2.655028 3.6375,-3.942912 0.23781,-1.122331 0.93693,-1.683616 1.64021,-1.683618 0.0947,0 0.18947,0.01015 0.28319,0.03049 1.88936,-0.847245 3.31596,1.09204 1.48208,3.13986 -0.002,0.306234 -0.006,0.612637 -0.0134,0.918807 2.06084,0.281333 2.27251,2.595704 -0.15916,3.37137 -0.007,0.114567 -0.0151,0.229118 -0.0227,0.343648 -0.17228,1.873778 -0.20828,3.759455 -0.49351,5.620846 -0.10975,0.923703 -0.46778,1.688692 -1.03043,2.412772 -2.04261,2.62868 -1.27694,-4.908845 -2.45721,-2.63033 -0.0694,0.195059 -0.17395,0.407745 -0.18914,0.42323 l -5.2e-4,5.17e-4 h -5.1e-4 v -5.17e-4 -5.17e-4 c -1.2e-4,-0.0064 0.0135,-0.04308 0.0475,-0.120922 0.0505,-0.115389 0.098,-0.215585 0.14263,-0.301791 0.0545,-0.15334 0.0877,-0.296338 0.0398,-0.324528 0.24384,-1.500736 0.27196,-3.025228 0.38964,-4.540291 -0.44201,0.116752 -0.88318,0.236276 -1.32395,0.357601 -1.25574,1.444854 -2.53862,2.863867 -3.94188,4.169254 -0.38252,0.355839 -0.74054,0.744886 -1.16789,1.045415 -0.50748,0.356884 -1.0804,0.610559 -1.62057,0.915709 -0.75014,-0.23609 -1.67363,-0.17346 -2.24999,-0.708487 -0.84571,-0.785038 -0.3863,-2.061498 -0.0837,-2.884062 0.57073,-1.551461 1.37412,-3.011424 1.98851,-4.544425 1.56264,-3.645301 3.08533,-7.308016 4.66483,-10.946102 0.55897,-1.287464 1.42692,-1.842213 2.16835,-1.834513 z m 8.69559,23.761858 c 1.82739,0.0167 3.65126,0.18148 5.46943,0.35502 2.17874,0.26834 4.37119,0.37866 6.55826,0.54932 1.54159,0.13336 3.08287,0.2709 4.62711,0.37 1.00011,0.0601 2.00181,0.0836 3.00343,0.0992 0.7737,-0.007 1.54185,0.0644 2.30735,0.1633 0.88382,-0.21419 1.76443,-0.46216 2.67891,-0.4899 1.93382,-0.0587 2.77858,0.92115 2.54455,1.86294 1.25479,1.18645 0.29361,3.1236 -2.32854,2.66082 -0.68988,-0.12176 -1.37711,-0.25762 -2.06499,-0.39016 -0.22478,-0.0333 -0.44977,-0.0673 -0.6749,-0.10025 -0.9457,0.19567 -1.90525,0.30866 -2.86701,0.38861 -0.92232,0.11449 -1.82893,0.0278 -2.72799,-0.18707 -0.49259,-0.13795 -0.98254,-0.23593 -1.49242,-0.21343 -0.54511,0.14851 -1.1183,0.17816 -1.66191,0.32712 -0.56093,0.12222 -1.10427,0.29264 -1.65313,0.45733 -0.36004,0.10749 -0.72993,0.17055 -1.09968,0.23255 -2.14327,0.35961 -3.16372,-0.88356 -2.77657,-1.98903 -0.90295,-0.0724 -1.80508,-0.15627 -2.70475,-0.26717 -1.70753,-0.16396 -3.42102,-0.32 -5.13715,-0.339 -3.45472,-0.0382 -3.45479,-3.52172 0,-3.49022 z" /><path
         id="path1"
         style="fill:#ffffff;stroke-width:0.264583;fill-opacity:0"
         d="m 93.565865,99.762386 c -0.310894,0.0018 -0.621859,0.0039 -0.93276,0.0067 0.706515,0.03741 1.41274,0.07517 2.119251,0.112655 -0.395185,-0.04323 -0.790466,-0.08297 -1.186491,-0.119373 z m 41.566455,2.510444 c -0.0408,9.3e-4 -0.0817,0.002 -0.12247,0.002 0.0408,0.01 0.0816,0.0194 0.12247,0.0289 -1e-5,-0.0104 1.1e-4,-0.0208 0,-0.031 z m -53.86803,6.74842 c -0.229277,0.41439 -0.458882,0.82888 -0.644922,1.26297 -0.28983,0.67627 -0.369107,1.43585 -0.698148,2.09393 -0.375166,0.75033 -1.020615,1.34411 -1.395781,2.09445 -1.002604,2.0052 -1.390301,4.17142 -2.093929,6.2823 -0.16452,0.49356 -0.596117,0.88562 -0.698148,1.39578 -0.292312,1.46156 -0.484403,3.04097 -0.698149,4.53719 -0.16097,1.12679 0.223023,2.37458 0,3.48971 -0.05102,0.25507 -0.285726,0.44579 -0.348816,0.69815 -0.217938,0.87174 0.147902,1.90414 0,2.79156 -0.06048,0.36287 -0.288853,0.68461 -0.349332,1.04748 -0.147904,0.88742 0.217935,1.92034 0,2.79208 -0.06309,0.25236 -0.285726,0.44527 -0.348816,0.69763 -0.188391,0.75356 0.127246,1.67926 0,2.44275 -0.212415,1.27448 -0.535716,2.53956 -0.698149,3.83904 -0.198835,1.59066 0.263554,3.3052 0,4.88652 -0.06048,0.36287 -0.303186,0.68142 -0.348816,1.04645 -0.186134,1.48908 0.186135,3.04812 0,4.53719 -0.362109,2.89686 -0.574923,5.89281 -1.046964,8.72505 -0.141962,0.85177 -0.207163,2.66209 0,3.49074 0.306637,1.22654 0.615055,0.14715 0.348816,1.7446 -0.06048,0.36287 -0.288337,0.68461 -0.348816,1.04748 -0.576699,3.46019 0.372093,7.21133 -0.349333,10.81846 -0.332391,1.66195 0.410596,3.59294 0,5.23534 -0.344416,1.37765 -0.807408,2.75 -1.046965,4.18734 -0.23967,1.43802 0.353502,3.12371 0,4.53771 -0.06309,0.25237 -0.285725,0.44527 -0.348815,0.69763 -0.164235,0.65695 0.164237,1.43699 0,2.09393 -0.06309,0.25236 -0.297799,0.44307 -0.348816,0.69815 -0.07928,0.3964 -0.148498,1.99777 0,2.44326 0.05203,0.15608 0.296791,0.19221 0.348816,0.3483 0.321032,0.96309 0.166915,3.1874 0,4.18889 -0.06048,0.36287 -0.288338,0.68358 -0.348816,1.04645 -0.246917,1.4815 0.475165,3.46102 0,4.88652 -0.05203,0.15608 -0.297305,0.19222 -0.349333,0.3483 -0.244948,0.73485 0.188648,1.68919 0,2.44378 -0.627348,2.50939 -0.348816,5.37545 -0.348816,8.0269 0,1.16833 -0.427048,5.42717 0,6.28127 0.203272,0.40654 0.494877,0.64094 0.698149,1.04748 0.104052,0.2081 -0.104053,0.49005 0,0.69815 0.251941,0.50389 0.44569,0.89189 0.697631,1.39578 0.588452,1.1769 -0.629986,4.74969 -1.046964,5.58364 -0.337746,0.6755 0.09458,1.93375 0.349333,2.44326 0.318733,0.63747 0,6.84219 0,8.0269 0,0.18624 -0.0071,0.89152 -0.01395,1.7415 -0.5218,-0.12219 -1.224537,0.17393 -1.73116,0.004 -0.156078,-0.052 -0.192736,-0.29679 -0.348816,-0.34881 -0.523499,-0.1745 -1.221612,0.1745 -1.745114,0 -0.156078,-0.052 -0.193254,-0.2973 -0.349332,-0.34933 -1.534594,-0.51153 -3.522358,0.24359 -4.886007,0.69814 -0.418801,0.1396 -0.976979,-0.13961 -1.39578,0 -0.15608,0.052 -0.201665,0.27524 -0.348816,0.34882 -0.366128,0.18306 -0.332023,-0.18307 -0.698149,0 -0.471482,0.23574 -0.943465,0.47173 -1.396297,0.69815 -0.294304,0.14715 -0.403328,0.551 -0.697632,0.69815 -0.539382,0.26969 -1.20573,0.42794 -1.745113,0.69763 -0.294304,0.14716 -0.385994,0.59409 -0.698149,0.69815 -0.220726,0.0736 -0.477419,-0.0736 -0.698148,0 -1.087022,0.36234 -2.066166,1.34078 -2.442745,2.09393 -0.209402,0.4188 -0.837566,0.62816 -1.046965,1.04696 -0.104053,0.2081 0.104053,0.49004 0,0.69815 -0.184727,0.36945 -0.513421,0.3287 -0.698148,0.69815 -0.329874,0.65975 -0.635664,8.84899 -0.348816,9.42268 0.449786,0.89958 0.603284,1.90472 1.046964,2.79208 0.423032,0.84608 2.00939,2.05192 2.792078,2.44326 0.104052,0.052 0.232484,0 0.348816,0 0.232669,0.11634 0.481709,0.20451 0.698148,0.34881 0.858846,0.57256 1.477892,1.42349 2.442745,1.74512 0.220729,0.0736 0.472428,-0.0564 0.698149,0 0.504727,0.12618 0.89157,0.57197 1.396297,0.69815 0.45144,0.11287 0.944339,-0.11285 1.395781,0 0.579525,0.14488 0.921967,0.5397 1.39578,0.69763 0.627121,0.20905 1.451524,-0.16073 2.094446,0 1.432687,0.3582 2.411394,0.47572 3.838525,0 0.970859,-0.32361 1.437446,0.15407 2.443262,-0.34882 0.558403,-0.27922 1.535526,0.27919 2.093929,0 1.090528,-0.54528 2.393173,-0.49843 3.490226,-1.04696 0.673253,-0.33663 1.769492,-0.0122 2.442745,-0.34882 0.406543,-0.20326 0.640425,-0.49487 1.046965,-0.69815 0.208105,-0.10406 0.490046,0.10406 0.698148,0 0.147151,-0.0736 0.201665,-0.27525 0.348816,-0.34881 0.208105,-0.10406 0.533629,0.16452 0.698149,0 0.08226,-0.0822 -0.08226,-0.26708 0,-0.34934 0.164521,-0.16452 0.490043,0.10406 0.698148,0 0.294304,-0.14716 0.403846,-0.5505 0.698149,-0.69763 0.104051,-0.0521 0.266554,0.0822 0.348816,0 0.08226,-0.0823 -0.08226,-0.26707 0,-0.34933 0.08226,-0.0823 0.244763,0.0521 0.348816,0 0.467434,-0.2337 0.48373,-0.83254 0.698149,-1.04696 0.08226,-0.0822 0.266553,0.0823 0.348815,0 0.111765,-0.11176 1.780514,-3.56103 2.093929,-4.18786 0.434787,-0.86955 -0.07893,-2.28438 0.349333,-3.1409 0.203272,-0.40654 0.494877,-0.64042 0.698149,-1.04696 0.139599,-0.2792 -0.1396,-0.76828 0,-1.04748 0.07358,-0.14715 0.296791,-0.19274 0.348816,-0.34882 0.368956,-1.10687 0.104608,-3.63035 -0.348816,-4.53719 -0.651468,-1.30294 0.65147,-3.58307 0,-4.88601 -0.07357,-0.14715 -0.275758,-0.20166 -0.349333,-0.34881 -0.555162,-1.11032 0.554172,-4.12647 0,-5.23482 -0.516269,-1.03254 -0.08028,-1.9062 -0.348816,-2.44327 -0.667377,-1.33475 -0.01425,-3.16885 -0.349333,-3.83904 -0.505942,-1.01188 -0.03072,-1.48845 -0.348815,-2.44274 -0.05203,-0.15608 -0.296788,-0.19326 -0.348816,-0.34934 -0.400494,-1.20148 0,-6.92824 0,-8.72504 0,-0.56264 0.0086,-0.68423 0.0021,-0.69712 v -5.2e-4 h -5.17e-4 v -5.1e-4 h -5.17e-4 -5.17e-4 -5.16e-4 v 5.1e-4 h -5.17e-4 l -5.17e-4,5.2e-4 c -0.01914,0.0174 -0.09409,0.22355 -0.348299,-1.04748 -0.260236,-1.30119 -0.04756,-2.9977 0.349333,-4.18838 0.278329,-0.83498 -0.213857,-1.93664 0,-2.79207 0.350232,-1.40092 0.696735,-2.78694 1.046964,-4.18786 0.112861,-0.45144 -0.14715,-0.95432 0,-1.39578 0.05203,-0.15607 0.296791,-0.19325 0.348816,-0.34933 0.154611,-0.46383 -0.221563,-1.30148 0,-1.7446 0.300265,-0.60053 0.397085,-1.14298 0.698149,-1.74511 0.229804,-0.45961 -0.163269,-1.25531 0,-1.74512 0.05203,-0.15608 0.296791,-0.19273 0.348816,-0.34881 0.628346,-1.88503 -0.626255,-5.10169 0,-6.98046 0.293191,-0.87957 0.129828,-1.56473 0.349332,-2.44274 0.179609,-0.71843 0.518023,-1.37549 0.697632,-2.09393 0.112861,-0.45144 -0.147153,-0.95484 0,-1.3963 0.05203,-0.15608 0.275757,-0.20166 0.349333,-0.34881 0.105359,-0.21072 -0.161333,-0.88564 0,-1.04697 0.08226,-0.0823 0.266554,0.0823 0.348816,0 0.414044,-0.41405 0.892018,-3.21925 1.046964,-3.83904 0.184764,-0.73906 0.862198,-1.35487 1.046965,-2.09393 0.111167,-0.44468 0.226351,-2.54612 0.349332,-2.79208 0.740159,-1.48033 1.300986,-3.30011 2.093929,-4.886 0.468969,-0.93794 0.430361,-1.86717 1.046965,-2.79208 0.18252,-0.27378 0.515629,-0.42437 0.698149,-0.69815 0.464508,-0.69676 0.564711,-1.37055 1.046964,-2.09393 0.25667,-0.385 0.840815,-0.63466 1.046965,-1.04696 0.215477,-0.43096 0.482151,-0.96482 0.697631,-1.39578 0.209399,-0.4188 0.837563,-0.62817 1.046965,-1.04697 0.05203,-0.10405 -0.08226,-0.26707 0,-0.34933 0.1745,-0.1745 0.523649,-0.17432 0.698149,-0.34882 0.202282,-0.20228 0.495809,-1.19401 0.698157,-1.39629 0.0823,-0.0823 0.26655,0.0823 0.34881,0 0.18437,-0.18437 0.8626,-1.56023 1.04697,-1.7446 0.21442,-0.21442 0.81325,-0.23071 1.04696,-0.69815 0.052,-0.10405 -0.0823,-0.26655 0,-0.34881 0.34109,-0.34108 2.53029,-1.09074 3.14141,-1.3963 1.2018,-0.6009 2.63462,0.61942 3.48971,1.04696 0.37065,0.18533 1.0852,0.0382 1.3963,0.34934 0.0823,0.0823 -0.0823,0.26656 0,0.34881 0.16452,0.16453 0.53311,-0.16452 0.69763,0 0.0823,0.0823 -0.0823,0.26656 0,0.34882 0.0823,0.0823 0.24528,-0.052 0.34933,0 0.57806,0.28902 2.91836,3.04514 3.1409,3.49022 4.15928,8.31856 3.01704,20.78305 2.09392,30.01419 -0.11417,1.14167 0.16231,2.35357 0,3.48971 -0.31509,2.20567 -0.73002,4.41254 -1.04696,6.63112 -0.16259,1.13814 0.12695,2.34767 0,3.49023 -0.0655,0.58956 -0.23249,1.16292 -0.34882,1.74459 0,0.698 0.0695,1.39991 0,2.09445 -0.10747,1.07463 -0.48947,2.09751 -0.69814,3.14089 -0.13689,0.68444 0.0632,1.3988 0,2.09393 -0.31943,3.51366 -0.34882,6.93301 -0.34882,10.47016 0,0.72575 -0.48349,4.00004 -0.34933,4.53668 0.0399,0.15961 0.31706,0.188 0.34933,0.34933 0.44976,2.24882 -0.63976,6.80577 0,8.72505 0.51073,1.53219 1.18788,3.22286 1.39578,4.88601 0.15047,1.20376 -0.0494,3.69146 0.34882,4.886 0.21563,0.6469 0.85931,1.34333 1.04696,2.09393 0.26199,1.04793 0.39802,2.16671 1.04748,3.1409 0.26846,0.40269 0.77851,0.64427 1.04697,1.04696 0.31072,0.46609 0.65453,1.35268 1.04696,1.74511 0.34306,0.34305 2.72819,1.95634 3.14089,2.09393 0.77719,0.25905 1.61616,0.36753 2.44275,0.69815 2.32788,0.93115 4.81069,2.12792 7.32927,2.44275 0.46174,0.0577 0.93404,-0.0577 1.39578,0 0.95191,0.11898 1.84018,0.57917 2.79208,0.69815 1.44067,0.18011 3.08925,0 4.53719,0 5.30969,0 9.2951,-0.21364 14.3092,-2.09393 1.7043,-0.63912 8.24593,-2.53195 9.07387,-4.18786 0.44804,-0.89607 -0.2005,-3.99615 -0.34882,-4.88601 -0.40488,-2.42931 -1.50712,-2.90291 -3.14141,-4.53719 -0.6154,-0.6154 -1.3505,-1.64786 -2.09393,-2.09393 -1.1623,-0.69737 -2.9246,-1.08048 -4.18786,-1.3963 -1.08378,-0.27094 -2.04746,-1.1771 -3.14089,-1.39578 -1.10969,-0.22194 -2.39393,0.27407 -3.49023,0 -1.36136,-0.34034 -2.77712,-0.41599 -4.18786,-0.69814 -1.29018,-0.25803 -2.94569,0.41423 -4.18837,0 -0.15608,-0.052 -0.19274,-0.29679 -0.34882,-0.34882 -0.53338,-0.17779 -1.52762,0 -2.09393,0 -2.18419,0 -5.17636,-0.39244 -6.97993,-1.74511 -1.76395,-1.32297 -2.49683,-3.65196 -3.1409,-5.58416 -0.35099,-1.05297 0.27014,-2.40915 0,-3.48971 -0.0631,-0.25237 -0.29832,-0.44307 -0.34933,-0.69815 -0.31432,-1.57156 0.51345,-6.07753 1.04697,-7.67808 0.17347,-0.5204 0.57397,-1.12424 0.69815,-1.74511 0.25642,-1.28213 0.43605,-2.52864 0.69814,-3.83905 0.40147,-2.00735 -0.28957,-4.25483 0,-6.28178 0.23572,-1.65005 0.37394,-3.26754 0.69764,-4.88601 0.1566,-0.78301 -0.1566,-1.66024 0,-2.44326 0.39897,-1.99486 1.06487,-3.9444 1.39629,-5.93297 0.0143,-0.0855 -0.13823,-1.46814 0,-1.7446 0.49668,-0.99335 0.76567,-2.01621 1.04697,-3.14141 0.31356,-1.25426 0.0576,-6.39764 0.34881,-6.97994 0.34581,-0.69161 0.085,-0.60289 0.34934,-1.39578 0.052,-0.15608 0.29679,-0.19325 0.34881,-0.34933 0.4498,-1.3494 -0.54289,-5.19601 0,-6.28179 0.0736,-0.14716 0.27525,-0.20166 0.34882,-0.34881 0.31204,-0.62408 0,-3.74194 0,-4.53719 0,-2.33943 0.38083,-5.14032 -0.34882,-7.32927 -0.27959,-0.83879 -0.0128,-1.7837 -0.34881,-2.79156 -0.12014,-0.36043 0.21501,-9.15559 0.34881,-9.4232 0.38914,-0.77828 0.66853,-1.68637 1.04697,-2.44326 0.22718,-0.45435 -0.12098,-1.15437 0.34881,-2.09393 0.45719,-0.91439 -0.32426,-2.51695 0,-3.48971 0.72624,-2.17875 0.69815,-4.27835 0.69815,-6.63112 0,-0.6154 -0.14869,-1.49918 0,-2.09393 0.17552,-0.7021 0.55675,-1.38747 0.69815,-2.09444 0.2689,-1.34449 0.13913,-4.11577 0.34882,-5.58364 0.31507,-2.20545 0.51951,-4.52134 1.04696,-6.63112 0.20578,-0.82314 0.19587,-7.04753 0,-8.0269 -0.19151,-0.95753 -0.50612,-1.83454 -0.69763,-2.79208 -0.33791,-1.68956 -0.009,-3.53419 -0.34933,-5.23534 -0.21319,-1.06588 -0.65722,-2.10006 -0.95654,-3.15226 -0.21446,-0.002 -0.42893,-0.004 -0.64337,-0.007 -1.03749,-0.0143 -2.07458,-0.0355 -3.11143,-0.076 -0.51431,-0.0208 -1.02857,-0.0449 -1.54255,-0.0713 -0.0944,0.0284 -0.1886,0.0569 -0.28318,0.0853 -0.36004,0.10749 -0.72993,0.17055 -1.09968,0.23255 -0.59415,0.0997 -1.10221,0.076 -1.51773,-0.0336 -0.63554,0.0867 -1.4002,-0.0399 -2.02262,0.009 -1.16418,0.0932 -2.33577,0.01 -3.50366,0.01 -1.65266,0.001 -3.30519,-0.006 -4.95784,-0.009 -6.24734,-0.008 -12.49471,0.0674 -18.741495,0.14056 -3.335406,0.039 -7.619498,0.1285 -11.000362,0.0491 -1.360378,-0.032 -2.718546,-0.12855 -4.077787,-0.19275 -0.64651,-0.0754 -1.711421,-0.16041 -2.78381,-0.3421 z m -7.465694,139.28401 c -0.02384,0.34835 -0.06712,0.84337 -0.159163,1.57975 -0.0597,-0.0149 -0.12533,-0.0394 -0.194304,-0.0698 -0.01205,-0.19713 0.07722,-0.64401 0.353467,-1.50998 z m 0.299723,0.971 h 5.17e-4 5.17e-4 v 5.1e-4 5.2e-4 c -0.0043,0.0186 -0.119233,0.2066 -0.251664,0.37827 0.164307,-0.26207 0.237154,-0.36713 0.250114,-0.37879 z" /><rect
         style="fill:#000000;stroke-width:0.264583;fill-opacity:0"
         id="rect17"
         width="77.478256"
         height="41.531139"
         x="74.33725"
         y="68.404228" /><rect
         style="fill:#0000ff;stroke-width:0.264583;fill-opacity:0"
         id="rect20"
         width="20.242069"
         height="2.4430089"
         x="46.766159"
         y="247.79083" /><path
         style="fill:#ffffff;stroke-width:0.264583;fill-opacity:0"
         d="m 50.605171,254.77086 c -0.465336,0.11633 -1.51234,-0.11634 -1.396005,0.349 0.116332,0.46533 1.77973,-0.6368 1.396005,-0.349 -2.027145,1.52035 -2.555925,1.20097 -4.188016,1.745 -1.089345,0.36312 0.116335,0.23267 -0.349001,0.698 -0.164521,0.16452 -0.489897,-0.10405 -0.698003,0 -0.5584,0.2792 -0.837602,1.11681 -1.396005,1.39601 -0.208102,0.10405 -0.489897,-0.10405 -0.698,0 -0.619551,0.30977 -1.125458,0.73723 -1.745006,1.047 -0.208105,0.10405 -0.533482,-0.16452 -0.698003,0 -0.08226,0.0823 0.08226,0.26674 0,0.349 -0.16452,0.16452 -0.489899,-0.10405 -0.698002,0 -0.406543,0.20327 -0.640461,0.49473 -1.047004,0.698 -0.208103,0.10406 -0.489897,-0.10405 -0.698003,0 -0.471482,0.23575 -0.943173,0.47159 -1.396005,0.69801 -0.441454,0.22073 -0.636333,0.77322 -1.047004,1.047 -0.0968,0.0645 -0.266739,-0.0823 -0.348998,0 -0.08226,0.0823 0.05203,0.24495 0,0.349 -0.147154,0.29431 -0.593953,0.38585 -0.698003,0.698 -0.345125,1.03537 -0.0039,0.36064 -0.349001,1.39601 -0.05203,0.15607 -0.296976,0.19293 -0.349001,0.34901 -0.16273,0.48818 -0.228087,2.68483 0,3.141 0.187581,0.37515 0.401407,0.75041 0.698002,1.04701 0.08226,0.0823 0.26674,-0.0823 0.349001,0 0.08226,0.0823 0,0.23267 0,0.34898 0.116332,0.11634 0.212112,0.25776 0.349002,0.34902 1.825596,1.21705 4.121364,-0.0333 6.28202,1.04701 0.232667,0.11633 0.514062,0.16504 0.698003,0.34898 0.08226,0.0823 -0.0968,0.28448 0,0.34901 0.449847,0.29991 4.077451,0.93644 4.188013,1.04701 0.16452,0.16452 -0.129061,0.5044 0,0.698 0.543057,0.81457 0.889381,0.0111 1.396005,0.34901 0.273777,0.18251 0.424222,0.51546 0.698002,0.698 0.193591,0.12906 0.477274,-0.0736 0.698003,0 0.69025,0.23008 1.165108,0.40804 1.745006,0.698 0.69504,0.34753 4.158025,-0.10634 4.886016,-0.34902 0.156077,-0.052 0.192923,-0.29696 0.349001,-0.34898 0.331092,-0.11039 0.800222,0.24678 1.047004,0 0.08226,-0.0823 -0.104053,-0.297 0,-0.34901 0.778804,-0.38939 2.978658,0 3.839011,0"
         id="path20" /><path
         style="fill:#ffffff;stroke-width:0.265;stroke-dasharray:none;fill-opacity:1"
         id="path23"
         sodipodi:type="arc"
         sodipodi:cx="109.06287"
         sodipodi:cy="65.263222"
         sodipodi:rx="51.826675"
         sodipodi:ry="56.887188"
         sodipodi:start="0"
         sodipodi:end="6.2738024"
         sodipodi:open="true"
         sodipodi:arc-type="arc"
         d="M 160.88954,65.263222 A 51.826675,56.887188 0 0 1 109.18444,122.15025 51.826675,56.887188 0 0 1 57.236761,65.530104 51.826675,56.887188 0 0 1 108.69816,8.3774424 51.826675,56.887188 0 0 1 160.88726,64.729462" /><path
         style="fill:#ffffff;stroke-width:0.264583"
         id="path24"
         sodipodi:type="arc"
         sodipodi:cx="114.12338"
         sodipodi:cy="44.846653"
         sodipodi:rx="0.6980024"
         sodipodi:ry="6.1075206"
         sodipodi:start="0"
         sodipodi:end="6.2738024"
         sodipodi:open="true"
         sodipodi:arc-type="arc"
         d="m 114.82138,44.846653 a 0.6980024,6.1075206 0 0 1 -0.69636,6.107504 0.6980024,6.1075206 0 0 1 -0.69963,-6.078851 0.6980024,6.1075206 0 0 1 0.69308,-6.136022 0.6980024,6.1075206 0 0 1 0.70288,6.050064" /><path
         style="fill:#ffaaaa;stroke-width:0.235542"
         id="path25"
         sodipodi:type="arc"
         sodipodi:cx="108.71385"
         sodipodi:cy="64.390709"
         sodipodi:rx="46.940662"
         sodipodi:ry="51.12867"
         sodipodi:start="0"
         sodipodi:end="6.2738024"
         sodipodi:open="true"
         sodipodi:arc-type="arc"
         d="M 155.65451,64.390709 A 46.940662,51.12867 0 0 1 108.82396,115.51924 46.940662,51.12867 0 0 1 61.773706,64.630576 46.940662,51.12867 0 0 1 108.38352,13.263305 46.940662,51.12867 0 0 1 155.65245,63.91098" /><rect
         style="fill:#000000;stroke-width:0.264583;fill-opacity:0"
         id="rect26"
         width="137.85547"
         height="164.72856"
         x="30.363102"
         y="116.9154" /><rect
         style="fill:#ffffff;stroke-width:0.264583;fill-opacity:1"
         id="rect27"
         width="16.403055"
         height="141.34546"
         x="76.431259"
         y="112.72738" /><rect
         style="fill:#ffffff;stroke-width:0.264583;fill-opacity:1"
         id="rect27-8"
         width="16.403055"
         height="141.34546"
         x="125.70773"
         y="112.57542" /><rect
         style="fill:#ffffff;stroke-width:0.264583;fill-opacity:1"
         id="rect28"
         width="6.2820239"
         height="8.725029"
         x="76.431259"
         y="107.84136" /><rect
         style="fill:#ffffff;stroke-width:0.264583;fill-opacity:1"
         id="rect28-1"
         width="6.2820239"
         height="8.725029"
         x="135.81345"
         y="107.65765" /><rect
         style="fill:#ffffff;stroke-width:0.264583;fill-opacity:1"
         id="rect29"
         width="39.786133"
         height="72.941246"
         x="90.391296"
         y="115.51939" /><path
         style="fill:#000000;stroke-width:0.264583"
         id="path29"
         sodipodi:type="arc"
         sodipodi:cx="88.820793"
         sodipodi:cy="50.779671"
         sodipodi:rx="4.362515"
         sodipodi:ry="5.0605168"
         sodipodi:start="0"
         sodipodi:end="6.2738024"
         sodipodi:open="true"
         sodipodi:arc-type="arc"
         d="m 93.183308,50.779671 a 4.362515,5.0605168 0 0 1 -4.352282,5.060503 4.362515,5.0605168 0 0 1 -4.3727,-5.036762 4.362515,5.0605168 0 0 1 4.331768,-5.084133 4.362515,5.0605168 0 0 1 4.393022,5.01291" /><path
         style="fill:#000000;stroke-width:0.264583"
         id="path29-2"
         sodipodi:type="arc"
         sodipodi:cx="130.0827"
         sodipodi:cy="50.484432"
         sodipodi:rx="4.362515"
         sodipodi:ry="5.0605168"
         sodipodi:start="0"
         sodipodi:end="6.2738024"
         sodipodi:open="true"
         sodipodi:arc-type="arc"
         d="m 134.44522,50.484432 a 4.362515,5.0605168 0 0 1 -4.35228,5.060503 4.362515,5.0605168 0 0 1 -4.3727,-5.036762 4.362515,5.0605168 0 0 1 4.33176,-5.084132 4.362515,5.0605168 0 0 1 4.39303,5.01291" /><path
         style="fill:#ffaaaa;fill-opacity:1;stroke:#000000;stroke-width:7.882;stroke-dasharray:none;stroke-opacity:1;paint-order:stroke markers fill"
         id="path30"
         sodipodi:type="arc"
         sodipodi:cx="110.63337"
         sodipodi:cy="82.538773"
         sodipodi:rx="20.831472"
         sodipodi:ry="13.676948"
         sodipodi:start="0"
         sodipodi:end="6.2738024"
         sodipodi:open="true"
         sodipodi:arc-type="arc"
         d="M 131.46484,82.538773 A 20.831472,13.676948 0 0 1 110.68223,96.215683 20.831472,13.676948 0 0 1 89.802126,82.602937 20.831472,13.676948 0 0 1 110.48678,68.862164 20.831472,13.676948 0 0 1 131.46392,82.410445" /><rect
         style="fill:#ffaaaa;fill-opacity:1;stroke:#000000;stroke-width:8.86902;stroke-dasharray:none;stroke-opacity:0;paint-order:stroke markers fill"
         id="rect30"
         width="61.833183"
         height="20.651043"
         x="80.41478"
         y="62.26672" /><path
         style="fill:#ffffff;fill-opacity:1;stroke:#000000;stroke-width:7.9693;stroke-dasharray:none;stroke-opacity:0;paint-order:stroke markers fill"
         id="path31"
         sodipodi:type="arc"
         sodipodi:cx="67.70623"
         sodipodi:cy="254.24736"
         sodipodi:rx="25.084429"
         sodipodi:ry="9.9028769"
         sodipodi:start="0"
         sodipodi:end="6.2738024"
         sodipodi:open="true"
         sodipodi:arc-type="arc"
         d="m 92.790659,254.24736 a 25.084429,9.9028769 0 0 1 -25.025588,9.90285 25.084429,9.9028769 0 0 1 -25.142994,-9.85639 25.084429,9.9028769 0 0 1 24.907631,-9.94909 25.084429,9.9028769 0 0 1 25.259847,9.80971" /><path
         style="fill:#ffffff;fill-opacity:1;stroke:#000000;stroke-width:7.9693;stroke-dasharray:none;stroke-opacity:0;paint-order:stroke markers fill"
         id="path31-2"
         sodipodi:type="arc"
         sodipodi:cx="150.67076"
         sodipodi:cy="252.74741"
         sodipodi:rx="25.084429"
         sodipodi:ry="9.9028769"
         sodipodi:start="0"
         sodipodi:end="6.2738024"
         sodipodi:open="true"
         sodipodi:arc-type="arc"
         d="m 175.75519,252.74741 a 25.084429,9.9028769 0 0 1 -25.02559,9.90285 25.084429,9.9028769 0 0 1 -25.14299,-9.8564 25.084429,9.9028769 0 0 1 24.90763,-9.94909 25.084429,9.9028769 0 0 1 25.25985,9.80972" /><path
         style="fill:#000000;fill-opacity:0;stroke:#ffffff;stroke-width:4;stroke-miterlimit:4;stroke-dasharray:none;stroke-opacity:1;paint-order:markers stroke fill"
         d="M 77.132818,122.52482 C 41.169321,107.39047 53.486826,167.12775 50.639201,186.62777"
         id="path43" /><path
         style="fill:#000000;fill-opacity:0;stroke:#ffffff;stroke-width:4;stroke-miterlimit:4;stroke-dasharray:none;stroke-opacity:1;paint-order:markers stroke fill"
         d="m 141.1698,123.21776 c 33.75658,-15.16359 22.19494,44.68918 24.86783,64.2269"
         id="path43-6" /><path
         d="m 50.19642,174.84979 a 9.4230318,7.6780257 0 0 0 -9.351884,7.71633 9.4230318,7.6780257 0 0 0 9.446452,7.63932 9.4230318,7.6780257 0 0 0 9.399426,-7.67808 h -9.422681 l 9.422164,-0.077 a 9.4230318,7.6780257 0 0 0 -9.493477,-7.60057 z"
         style="fill:#ffffff;stroke:#ffffff;stroke-width:3.182;stroke-dasharray:none;paint-order:markers stroke fill;fill-opacity:1;stroke-opacity:1"
         id="path45" /><path
         d="m 165.93573,176.36239 a 9.4230318,7.6780257 0 0 0 -9.35189,7.71633 9.4230318,7.6780257 0 0 0 9.44645,7.63932 9.4230318,7.6780257 0 0 0 9.39943,-7.67808 h -9.42268 l 9.42216,-0.077 a 9.4230318,7.6780257 0 0 0 -9.49347,-7.60057 z"
         style="fill:#ffffff;stroke:#ffffff;stroke-width:3.182;stroke-dasharray:none;paint-order:markers stroke fill;stroke-opacity:1;fill-opacity:1"
         id="path45-1" /></g></g></svg>
