<svg width="210mm" height="297mm" viewBox="0 0 210 297" xml:space="preserve" xmlns="http://www.w3.org/2000/svg">
    <path style="display:inline;fill:#000;fill-opacity:0;stroke-width:.264583" d="M-1.396-.349v298.745h213.24V-.349Zm111.952 79.891c1.083.012 1.897 1.224 1.081 3.107-1.282 2.96-2.53 5.933-3.79 8.901l.627-.195.352-.1c1.158-1.363 2.395-2.654 3.637-3.942.238-1.122.937-1.684 1.64-1.684.095 0 .19.01.284.03 1.89-.846 3.316 1.093 1.482 3.14a52.12 52.12 0 0 1-.013.92c2.06.28 2.272 2.595-.16 3.37l-.022.345c-.173 1.873-.209 3.759-.494 5.62-.11.924-.468 1.69-1.03 2.413-2.043 2.629-1.277-4.909-2.458-2.63-.069.195-.173.408-.189.423 0-.007.013-.044.047-.121.05-.116.098-.216.142-.302.055-.153.088-.296.04-.325.244-1.5.272-3.025.39-4.54-.442.117-.883.236-1.324.358-1.256 1.444-2.539 2.864-3.942 4.169-.382.356-.74.745-1.168 1.045-.507.357-1.08.61-1.62.916-.75-.236-1.674-.173-2.25-.708-.846-.786-.387-2.062-.084-2.885.57-1.551 1.374-3.011 1.988-4.544 1.563-3.645 3.086-7.308 4.665-10.946.56-1.288 1.427-1.842 2.169-1.835zm8.695 23.762c1.828.017 3.651.182 5.47.355 2.178.269 4.37.379 6.558.55 1.541.133 3.083.27 4.627.37 1 .06 2.002.083 3.003.099.774-.007 1.542.064 2.308.163.884-.214 1.764-.462 2.679-.49 1.933-.058 2.778.921 2.544 1.863 1.255 1.187.294 3.124-2.328 2.661-.69-.122-1.377-.258-2.065-.39l-.675-.1c-.946.195-1.906.308-2.867.388-.923.115-1.83.028-2.728-.187-.493-.138-.983-.236-1.493-.213-.545.148-1.118.178-1.662.327-.56.122-1.104.292-1.653.457-.36.108-.73.17-1.1.233-2.143.36-3.163-.884-2.776-1.99a63.74 63.74 0 0 1-2.705-.267c-1.707-.163-3.42-.32-5.137-.339-3.455-.038-3.455-3.521 0-3.49z" fill="none" transform="translate(1.115 .927)"/>
    <path style="fill:#fff;stroke-width:.264583;fill-opacity:0" d="m93.566 99.762-.933.007 2.12.113a68.93 68.93 0 0 0-1.187-.12zm41.566 2.51c-.04.002-.081.003-.122.003l.122.029v-.031zm-53.868 6.75c-.229.414-.459.828-.645 1.262-.29.676-.369 1.436-.698 2.094-.375.75-1.02 1.344-1.396 2.095-1.002 2.005-1.39 4.171-2.093 6.282-.165.493-.597.886-.699 1.396-.292 1.461-.484 3.04-.698 4.537-.16 1.127.223 2.374 0 3.49-.05.255-.286.445-.349.698-.218.871.148 1.904 0 2.791-.06.363-.288.685-.349 1.048-.148.887.218 1.92 0 2.792-.063.252-.286.445-.349.697-.188.754.127 1.68 0 2.443-.212 1.275-.535 2.54-.698 3.84-.199 1.59.264 3.304 0 4.886-.06.363-.303.681-.349 1.046-.186 1.49.186 3.048 0 4.537-.362 2.897-.575 5.893-1.047 8.725-.142.852-.207 2.663 0 3.491.307 1.227.615.147.35 1.745-.061.363-.29.684-.35 1.047-.576 3.46.372 7.212-.349 10.819-.332 1.662.41 3.593 0 5.235-.344 1.378-.807 2.75-1.047 4.187-.24 1.438.354 3.124 0 4.538-.063.253-.286.445-.349.698-.164.657.164 1.437 0 2.094-.063.252-.298.443-.349.698-.079.396-.148 1.998 0 2.443.052.156.297.192.35.348.32.964.166 3.188 0 4.19-.061.362-.29.683-.35 1.046-.247 1.481.476 3.46 0 4.886-.052.156-.297.193-.349.349-.245.734.189 1.689 0 2.443-.627 2.51-.349 5.376-.349 8.027 0 1.169-.427 5.427 0 6.282.204.406.495.64.698 1.047.104.208-.104.49 0 .698l.698 1.396c.588 1.177-.63 4.75-1.047 5.584-.338.675.095 1.933.35 2.443.318.637 0 6.842 0 8.027 0 .186-.008.891-.015 1.741-.521-.122-1.224.174-1.73.004-.157-.052-.193-.297-.35-.349-.523-.174-1.221.175-1.745 0-.156-.052-.193-.297-.349-.349-1.535-.511-3.522.244-4.886.698-.419.14-.977-.14-1.396 0-.156.052-.201.275-.349.35-.366.182-.332-.184-.698 0l-1.396.697c-.294.147-.403.551-.698.698-.539.27-1.205.428-1.745.698-.294.147-.386.594-.698.698-.22.074-.477-.073-.698 0-1.087.362-2.066 1.34-2.443 2.094-.21.419-.837.628-1.047 1.047-.104.208.104.49 0 .698-.185.37-.513.329-.698.698-.33.66-.636 8.85-.349 9.423.45.9.604 1.905 1.047 2.792.423.846 2.01 2.052 2.792 2.443.104.052.233 0 .35 0 .232.117.48.205.697.35.86.572 1.478 1.423 2.443 1.744.22.074.472-.056.698 0 .505.126.892.572 1.396.698.452.113.945-.112 1.396 0 .58.145.922.54 1.396.698.627.21 1.452-.16 2.094 0 1.433.358 2.412.476 3.839 0 .97-.324 1.437.154 2.443-.349.559-.279 1.536.28 2.094 0 1.09-.545 2.393-.498 3.49-1.047.674-.336 1.77-.012 2.443-.349.407-.203.64-.494 1.047-.698.208-.104.49.104.698 0 .147-.073.202-.275.35-.348.207-.105.533.164.697 0 .082-.083-.082-.268 0-.35.165-.164.49.104.698 0 .295-.147.404-.55.699-.697.104-.053.266.082.348 0 .083-.083-.082-.268 0-.35.083-.082.245.052.35 0 .467-.233.483-.832.697-1.047.083-.082.267.083.35 0 .11-.112 1.78-3.56 2.093-4.188.435-.87-.079-2.284.35-3.14.203-.407.494-.64.698-1.047.14-.28-.14-.769 0-1.048.073-.147.296-.193.348-.349.37-1.107.105-3.63-.348-4.537-.652-1.303.651-3.583 0-4.886-.074-.147-.276-.202-.35-.349-.555-1.11.554-4.126 0-5.235-.516-1.032-.08-1.906-.349-2.443-.667-1.335-.014-3.169-.349-3.839-.506-1.012-.03-1.488-.349-2.443-.052-.156-.297-.193-.349-.349-.4-1.201 0-6.928 0-8.725 0-.563.009-.684.003-.697h-.001v-.001h-.002c-.02.018-.095.224-.349-1.047-.26-1.3-.047-2.997.35-4.188.278-.835-.214-1.937 0-2.792l1.046-4.188c.113-.451-.147-.954 0-1.396.052-.156.297-.193.35-.35.154-.463-.222-1.3 0-1.744.3-.6.396-1.143.697-1.745.23-.46-.163-1.255 0-1.745.052-.156.297-.193.35-.349.628-1.885-.627-5.101 0-6.98.292-.88.129-1.565.349-2.443.18-.718.518-1.375.697-2.094.113-.451-.147-.955 0-1.396.052-.156.276-.202.35-.349.105-.21-.162-.886 0-1.047.082-.082.266.082.348 0 .414-.414.892-3.22 1.047-3.839.185-.739.862-1.355 1.047-2.094.111-.445.227-2.546.35-2.792.74-1.48 1.3-3.3 2.093-4.886.47-.938.43-1.867 1.047-2.792.183-.274.516-.424.699-.698.464-.697.564-1.37 1.047-2.094.256-.385.84-.635 1.047-1.047l.697-1.396c.21-.419.838-.628 1.047-1.047.052-.104-.082-.267 0-.35.175-.174.524-.173.698-.348.203-.202.496-1.194.698-1.396.083-.083.267.082.35 0 .184-.185.862-1.56 1.046-1.745.215-.214.813-.23 1.047-.698.052-.104-.082-.267 0-.349.341-.34 2.53-1.09 3.142-1.396 1.201-.601 2.634.62 3.49 1.047.37.185 1.085.038 1.396.35.082.081-.083.266 0 .348.164.165.533-.165.697 0 .083.082-.082.267 0 .349.083.082.246-.052.35 0 .578.289 2.918 3.045 3.14 3.49 4.16 8.319 3.018 20.783 2.094 30.014-.114 1.142.163 2.354 0 3.49-.315 2.206-.73 4.412-1.047 6.631-.162 1.138.127 2.348 0 3.49-.065.59-.232 1.163-.348 1.745 0 .698.07 1.4 0 2.094-.108 1.075-.49 2.098-.699 3.141-.136.685.064 1.399 0 2.094-.319 3.514-.348 6.933-.348 10.47 0 .726-.484 4-.35 4.537.04.16.317.188.35.35.45 2.248-.64 6.805 0 8.724.51 1.533 1.188 3.223 1.395 4.886.15 1.204-.049 3.692.35 4.886.215.647.859 1.344 1.046 2.094.262 1.048.398 2.167 1.048 3.141.268.403.778.644 1.047 1.047.31.466.654 1.353 1.047 1.745.343.343 2.728 1.957 3.14 2.094.778.26 1.617.368 2.443.698 2.328.931 4.81 2.128 7.33 2.443.461.058.934-.058 1.395 0 .952.12 1.84.58 2.792.698 1.441.18 3.09 0 4.538 0 5.31 0 9.295-.213 14.309-2.094 1.704-.639 8.246-2.532 9.074-4.188.448-.896-.2-3.996-.35-4.886-.404-2.429-1.506-2.902-3.14-4.537-.616-.615-1.351-1.648-2.095-2.094-1.162-.697-2.924-1.08-4.187-1.396-1.084-.27-2.048-1.177-3.141-1.396-1.11-.222-2.394.274-3.49 0-1.362-.34-2.778-.416-4.188-.698-1.29-.258-2.946.414-4.189 0-.156-.052-.192-.297-.349-.349-.533-.178-1.527 0-2.093 0-2.185 0-5.177-.392-6.98-1.745-1.764-1.323-2.497-3.652-3.141-5.584-.351-1.053.27-2.41 0-3.49-.063-.252-.299-.443-.35-.698-.314-1.571.514-6.077 1.047-7.678.174-.52.574-1.124.698-1.745.257-1.282.437-2.529.699-3.84.401-2.006-.29-4.254 0-6.28.235-1.65.374-3.268.697-4.887.157-.783-.156-1.66 0-2.443.4-1.995 1.065-3.945 1.397-5.933.014-.086-.139-1.468 0-1.745.496-.993.765-2.016 1.047-3.141.313-1.254.057-6.398.348-6.98.346-.692.085-.603.35-1.396.052-.156.296-.193.348-.35.45-1.349-.542-5.195 0-6.281.074-.147.276-.202.35-.349.311-.624 0-3.742 0-4.537 0-2.34.38-5.14-.35-7.33-.28-.838-.012-1.783-.348-2.79-.12-.361.215-9.156.348-9.424.39-.778.669-1.686 1.047-2.443.228-.455-.12-1.155.35-2.094.456-.915-.325-2.517 0-3.49.725-2.179.697-4.278.697-6.631 0-.615-.148-1.5 0-2.094.176-.702.557-1.387.699-2.094.268-1.345.139-4.116.348-5.584.315-2.205.52-4.521 1.047-6.631.206-.823.196-7.048 0-8.027-.191-.958-.506-1.835-.697-2.792-.338-1.69-.01-3.534-.35-5.235-.213-1.066-.657-2.1-.956-3.153l-.644-.007a123.21 123.21 0 0 1-3.111-.076c-.514-.02-1.029-.045-1.543-.071l-.283.085c-.36.108-.73.17-1.1.233-.594.1-1.102.076-1.517-.034-.636.087-1.4-.04-2.023.01-1.164.092-2.335.01-3.503.01-1.653 0-3.306-.007-4.958-.01-6.248-.008-12.495.068-18.742.14-3.335.04-7.62.13-11 .05-1.36-.032-2.719-.129-4.078-.193-.646-.075-1.711-.16-2.784-.342zM73.8 248.304c-.024.349-.068.844-.16 1.58a1.24 1.24 0 0 1-.194-.07c-.012-.197.077-.644.354-1.51zm.3.971v.001c-.004.019-.119.207-.251.379.164-.263.237-.368.25-.38z" fill="none" transform="translate(1.115 .927)"/>
    <path style="fill:#000;stroke-width:.264583;fill-opacity:0" fill="none" d="M74.337 68.404h77.478v41.531H74.337z" transform="translate(1.115 .927)"/>
    <path style="fill:#00f;stroke-width:.264583;fill-opacity:0" fill="none" d="M46.766 247.791h20.242v2.443H46.766z" transform="translate(1.115 .927)"/>
    <path style="fill:#fff;stroke-width:.264583;fill-opacity:0" d="M50.605 254.77c-.465.117-1.512-.115-1.396.35.116.465 1.78-.637 1.396-.35-2.027 1.521-2.556 1.202-4.188 1.746-1.09.363.116.233-.349.698-.164.164-.49-.104-.698 0-.558.28-.837 1.117-1.396 1.396-.208.104-.49-.104-.698 0-.62.31-1.125.737-1.745 1.047-.208.104-.533-.165-.698 0-.082.082.082.267 0 .349-.164.164-.49-.104-.698 0-.406.203-.64.495-1.047.698-.208.104-.49-.104-.698 0l-1.396.698c-.441.22-.636.773-1.047 1.047-.097.064-.267-.082-.349 0-.082.082.052.245 0 .349-.147.294-.594.386-.698.698-.345 1.035-.004.36-.349 1.396-.052.156-.297.193-.349.349-.163.488-.228 2.685 0 3.14.188.376.402.751.698 1.048.082.082.267-.082.35 0 .081.082 0 .233 0 .349.115.116.211.258.348.349 1.826 1.217 4.121-.033 6.282 1.047.233.116.514.165.698.349.082.082-.097.284 0 .349.45.3 4.078.936 4.188 1.047.165.164-.129.504 0 .698.543.814.89.011 1.396.349.274.182.424.515.698.698.194.129.477-.074.698 0 .69.23 1.165.408 1.745.698.695.347 4.158-.106 4.886-.35.156-.051.193-.296.35-.348.33-.11.8.247 1.046 0 .082-.082-.104-.297 0-.35.779-.388 2.979 0 3.84 0" fill="none" transform="translate(1.115 .927)"/>
    <path style="fill:#fff;stroke-width:.265;stroke-dasharray:none;fill-opacity:1" d="M160.89 65.263a51.827 56.887 0 0 1-51.706 56.887 51.827 56.887 0 0 1-51.947-56.62 51.827 56.887 0 0 1 51.461-57.153 51.827 56.887 0 0 1 52.19 56.352" transform="translate(1.115 .927)"/>
    <path style="fill:#fff;stroke-width:.264583" d="M114.821 44.847a.698 6.108 0 0 1-.696 6.107.698 6.108 0 0 1-.7-6.079.698 6.108 0 0 1 .693-6.136.698 6.108 0 0 1 .703 6.05" transform="translate(1.115 .927)"/>
    <path style="fill:#faa;stroke-width:.235542" d="M155.655 64.39a46.941 51.129 0 0 1-46.831 51.13 46.941 51.129 0 0 1-47.05-50.89 46.941 51.129 0 0 1 46.61-51.367 46.941 51.129 0 0 1 47.269 50.648" transform="translate(1.115 .927)"/>
    <path style="fill:#000;stroke-width:.264583;fill-opacity:0" fill="none" d="M30.363 116.915h137.855v164.729H30.363z" transform="translate(1.115 .927)"/>
    <path style="fill:#fff;stroke-width:.264583;fill-opacity:1" d="M76.431 112.727h16.403v141.345H76.431zM125.708 112.575h16.403V253.92h-16.403z" transform="translate(1.115 .927)"/>
    <path style="fill:#fff;stroke-width:.264583;fill-opacity:1" d="M76.431 107.841h6.282v8.725h-6.282zM135.813 107.658h6.282v8.725h-6.282zM90.391 115.519h39.786v72.941H90.391z" transform="translate(1.115 .927)"/>
    <path style="fill:#000;stroke-width:.264583" d="M93.183 50.78a4.363 5.06 0 0 1-4.352 5.06 4.363 5.06 0 0 1-4.373-5.037 4.363 5.06 0 0 1 4.332-5.084 4.363 5.06 0 0 1 4.393 5.013M134.445 50.484a4.363 5.06 0 0 1-4.352 5.06 4.363 5.06 0 0 1-4.373-5.036 4.363 5.06 0 0 1 4.332-5.084 4.363 5.06 0 0 1 4.393 5.013" transform="translate(1.115 .927)"/>
    <path style="fill:#faa;fill-opacity:1;stroke:#000;stroke-width:7.882;stroke-dasharray:none;stroke-opacity:1;paint-order:stroke markers fill" d="M131.465 82.539a20.831 13.677 0 0 1-20.783 13.677 20.831 13.677 0 0 1-20.88-13.613 20.831 13.677 0 0 1 20.685-13.74 20.831 13.677 0 0 1 20.977 13.547" transform="translate(1.115 .927)"/>
    <path style="fill:#faa;fill-opacity:1;stroke:#000;stroke-width:8.86902;stroke-dasharray:none;stroke-opacity:0;paint-order:stroke markers fill" d="M80.415 62.267h61.833v20.651H80.415z" transform="translate(1.115 .927)"/>
    <path style="fill:#fff;fill-opacity:1;stroke:#000;stroke-width:7.9693;stroke-dasharray:none;stroke-opacity:0;paint-order:stroke markers fill" d="M92.79 254.247a25.084 9.903 0 0 1-25.025 9.903 25.084 9.903 0 0 1-25.143-9.856 25.084 9.903 0 0 1 24.908-9.95 25.084 9.903 0 0 1 25.26 9.81M175.755 252.747a25.084 9.903 0 0 1-25.025 9.903 25.084 9.903 0 0 1-25.143-9.856 25.084 9.903 0 0 1 24.907-9.95 25.084 9.903 0 0 1 25.26 9.81" transform="translate(1.115 .927)"/>
    <path style="fill:#000;fill-opacity:0;stroke:#fff;stroke-width:4;stroke-miterlimit:4;stroke-dasharray:none;stroke-opacity:1;paint-order:markers stroke fill" d="M77.133 122.525c-35.964-15.135-23.646 44.603-26.494 64.103M141.17 123.218c33.756-15.164 22.195 44.689 24.868 64.227" fill="none" transform="translate(1.115 .927)"/>
    <path d="M50.196 174.85a9.423 7.678 0 0 0-9.351 7.716 9.423 7.678 0 0 0 9.446 7.64 9.423 7.678 0 0 0 9.4-7.679h-9.423l9.422-.077a9.423 7.678 0 0 0-9.494-7.6z" style="fill:#fff;stroke:#fff;stroke-width:3.182;stroke-dasharray:none;paint-order:markers stroke fill;fill-opacity:1;stroke-opacity:1" transform="translate(1.115 .927)"/>
    <path d="M165.936 176.362a9.423 7.678 0 0 0-9.352 7.717 9.423 7.678 0 0 0 9.446 7.639 9.423 7.678 0 0 0 9.4-7.678h-9.423l9.422-.077a9.423 7.678 0 0 0-9.493-7.6z" style="fill:#fff;stroke:#fff;stroke-width:3.182;stroke-dasharray:none;paint-order:markers stroke fill;stroke-opacity:1;fill-opacity:1" transform="translate(1.115 .927)"/>
    <path style="fill:#000;fill-opacity:1;stroke:#fff;stroke-width:4;paint-order:markers stroke fill;stroke-opacity:0" d="M167.521 183.924h18.497v8.376h-18.497z"/>
    <path style="fill:#000;fill-opacity:1;stroke:#fff;stroke-width:4;stroke-opacity:0;paint-order:markers stroke fill" d="M179.736 186.018h6.282v27.222h-6.282z"/>
</svg>
